<mxfile host="app.diagrams.net" modified="2023-11-08T14:17:06.175Z" agent="Mozilla/5.0 (Windows NT 10.0; Win64; x64) AppleWebKit/537.36 (KHTML, like Gecko) Chrome/118.0.0.0 Safari/537.36" version="22.0.8" etag="wTphByXYYCk-Hs8W00HH" type="github">
  <diagram name="第 1 页" id="xKSDWEjiGmMJD3ig6e-v">
    <mxGraphModel>
      <root>
        <mxCell id="0" />
        <mxCell id="1" parent="0" />
      </root>
    </mxGraphModel>
  </diagram>
</mxfile>
